<?xml version="1.0" encoding="UTF-8"?>
<svg xmlns="http://www.w3.org/2000/svg" xmlns:xlink="http://www.w3.org/1999/xlink"
     width="500" height="200" viewBox="0 0 500 200">
<defs>
</defs>
<path d="M65.0,100.0 L69.74358974358974,100.0 L74.48717948717949,100.0 L79.23076923076923,100.0 L83.97435897435898,100.0 L88.71794871794872,100.0 L93.46153846153847,100.0 L98.2051282051282,100.0 L102.94871794871796,100.0 L107.69230769230768,100.0 L112.43589743589743,100.0 L117.17948717948718,100.0 L121.92307692307693,100.0 L126.66666666666666,100.0 L131.4102564102564,100.0 L136.15384615384613,100.0 L140.8974358974359,100.0 L145.64102564102564,100.0 L150.38461538461536,100.0 L155.12820512820514,100.0 L159.87179487179486,100.0 L164.6153846153846,100.0 L169.35897435897436,100.0 L174.1025641025641,100.0 L178.84615384615387,100.0 L183.5897435897436,100.0 L188.33333333333331,100.0 L193.07692307692307,100.0 L197.82051282051282,100.0 L202.56410256410257,100.0 L207.3076923076923,100.0 L212.05128205128204,100.0 L216.7948717948718,100.0 L221.53846153846155,100.0 L226.28205128205127,100.0 L231.02564102564102,100.0 L235.76923076923075,100.0 L240.5128205128205,100.0 L245.25641025641025,100.0 L250.0,100.0 L250.0,91.25 L245.25641025641025,91.25 L240.5128205128205,91.25 L235.76923076923075,91.25 L231.02564102564102,91.25 L226.28205128205127,91.25 L221.53846153846155,91.25 L216.7948717948718,91.25 L212.05128205128204,91.25 L207.3076923076923,91.25 L202.56410256410257,91.25 L197.82051282051282,91.25 L193.07692307692307,91.25 L188.33333333333331,91.25 L183.5897435897436,91.25 L178.84615384615387,91.25 L174.1025641025641,91.25 L169.35897435897436,91.25 L164.6153846153846,91.25 L159.87179487179486,91.25 L155.12820512820514,91.25 L150.38461538461536,91.25 L145.64102564102564,91.25 L140.8974358974359,91.25 L136.15384615384613,91.25 L131.4102564102564,91.25 L126.66666666666666,91.25 L121.92307692307693,91.25 L117.17948717948718,91.25 L112.43589743589743,91.25 L107.69230769230768,91.25 L102.94871794871796,91.25 L98.2051282051282,91.25 L93.46153846153847,91.25 L88.71794871794872,91.25 L83.97435897435898,91.25 L79.23076923076923,91.25 L74.48717948717949,91.25 L69.74358974358974,91.25 L65.0,91.25 Z" fill="green" fill-opacity="0.25" stroke="none" stroke-opacity="0.25" />
<path d="M65.0,100.0 L69.74358974358974,100.0 L74.48717948717949,100.0 L79.23076923076923,100.0 L83.97435897435898,100.0 L88.71794871794872,100.0 L93.46153846153847,100.0 L98.2051282051282,100.0 L102.94871794871796,100.0 L107.69230769230768,100.0 L112.43589743589743,100.0 L117.17948717948718,100.0 L121.92307692307693,100.0 L126.66666666666666,100.0 L131.4102564102564,100.0 L136.15384615384613,100.0 L140.8974358974359,100.0 L145.64102564102564,100.0 L150.38461538461536,100.0 L155.12820512820514,100.0 L159.87179487179486,100.0 L164.6153846153846,100.0 L169.35897435897436,100.0 L174.1025641025641,100.0 L178.84615384615387,100.0 L183.5897435897436,100.0 L188.33333333333331,100.0 L193.07692307692307,100.0 L197.82051282051282,100.0 L202.56410256410257,100.0 L207.3076923076923,100.0 L212.05128205128204,100.0 L216.7948717948718,100.0 L221.53846153846155,100.0 L226.28205128205127,100.0 L231.02564102564102,100.0 L235.76923076923075,100.0 L240.5128205128205,100.0 L245.25641025641025,100.0 L250.0,100.0 L250.0,135.0 L245.25641025641025,134.1025641025641 L240.5128205128205,133.2051282051282 L235.76923076923075,132.30769230769232 L231.02564102564102,131.4102564102564 L226.28205128205127,130.5128205128205 L221.53846153846155,129.6153846153846 L216.7948717948718,128.71794871794873 L212.05128205128204,127.82051282051282 L207.3076923076923,126.92307692307692 L202.56410256410257,126.02564102564102 L197.82051282051282,125.12820512820514 L193.07692307692307,124.23076923076924 L188.33333333333331,123.33333333333333 L183.5897435897436,122.43589743589743 L178.84615384615387,121.53846153846155 L174.1025641025641,120.64102564102564 L169.35897435897436,119.74358974358975 L164.6153846153846,118.84615384615384 L159.87179487179486,117.94871794871796 L155.12820512820514,117.05128205128204 L150.38461538461536,116.15384615384616 L145.64102564102564,115.25641025641025 L140.8974358974359,114.35897435897436 L136.15384615384613,113.46153846153845 L131.4102564102564,112.56410256410257 L126.66666666666666,111.66666666666666 L121.92307692307693,110.76923076923077 L117.17948717948718,109.87179487179486 L112.43589743589743,108.97435897435898 L107.69230769230768,108.07692307692308 L102.94871794871796,107.17948717948718 L98.2051282051282,106.28205128205128 L93.46153846153847,105.38461538461539 L88.71794871794872,104.48717948717949 L83.97435897435898,103.58974358974359 L79.23076923076923,102.6923076923077 L74.48717948717949,101.7948717948718 L69.74358974358974,100.8974358974359 L65.0,100.0 Z" fill="blue" fill-opacity="0.25" stroke="none" stroke-opacity="0.25" />
<path d="M65.0,91.25 L69.74358974358974,91.25 L74.48717948717949,91.25 L79.23076923076923,91.25 L83.97435897435898,91.25 L88.71794871794872,91.25 L93.46153846153847,91.25 L98.2051282051282,91.25 L102.94871794871796,91.25 L107.69230769230768,91.25 L112.43589743589743,91.25 L117.17948717948718,91.25 L121.92307692307693,91.25 L126.66666666666666,91.25 L131.4102564102564,91.25 L136.15384615384613,91.25 L140.8974358974359,91.25 L145.64102564102564,91.25 L150.38461538461536,91.25 L155.12820512820514,91.25 L159.87179487179486,91.25 L164.6153846153846,91.25 L169.35897435897436,91.25 L174.1025641025641,91.25 L178.84615384615387,91.25 L183.5897435897436,91.25 L188.33333333333331,91.25 L193.07692307692307,91.25 L197.82051282051282,91.25 L202.56410256410257,91.25 L207.3076923076923,91.25 L212.05128205128204,91.25 L216.7948717948718,91.25 L221.53846153846155,91.25 L226.28205128205127,91.25 L231.02564102564102,91.25 L235.76923076923075,91.25 L240.5128205128205,91.25 L245.25641025641025,91.25 L250.0,91.25" stroke="green" fill="none" stroke-width="2" />
<path d="M65.0,100.0 L69.74358974358974,100.8974358974359 L74.48717948717949,101.7948717948718 L79.23076923076923,102.6923076923077 L83.97435897435898,103.58974358974359 L88.71794871794872,104.48717948717949 L93.46153846153847,105.38461538461539 L98.2051282051282,106.28205128205128 L102.94871794871796,107.17948717948718 L107.69230769230768,108.07692307692308 L112.43589743589743,108.97435897435898 L117.17948717948718,109.87179487179486 L121.92307692307693,110.76923076923077 L126.66666666666666,111.66666666666666 L131.4102564102564,112.56410256410257 L136.15384615384613,113.46153846153845 L140.8974358974359,114.35897435897436 L145.64102564102564,115.25641025641025 L150.38461538461536,116.15384615384616 L155.12820512820514,117.05128205128204 L159.87179487179486,117.94871794871796 L164.6153846153846,118.84615384615384 L169.35897435897436,119.74358974358975 L174.1025641025641,120.64102564102564 L178.84615384615387,121.53846153846155 L183.5897435897436,122.43589743589743 L188.33333333333331,123.33333333333333 L193.07692307692307,124.23076923076924 L197.82051282051282,125.12820512820514 L202.56410256410257,126.02564102564102 L207.3076923076923,126.92307692307692 L212.05128205128204,127.82051282051282 L216.7948717948718,128.71794871794873 L221.53846153846155,129.6153846153846 L226.28205128205127,130.5128205128205 L231.02564102564102,131.4102564102564 L235.76923076923075,132.30769230769232 L240.5128205128205,133.2051282051282 L245.25641025641025,134.1025641025641 L250.0,135.0" stroke="blue" fill="none" stroke-width="2" />
<circle cx="65.0" cy="91.25" r="4" fill="green" />
<text x="71.0" y="87.25" font-size="12" text-anchor="start" dominant-baseline="auto" fill="green">1.25</text>
<circle cx="250.0" cy="91.25" r="4" fill="green" />
<text x="244.0" y="87.25" font-size="12" text-anchor="end" dominant-baseline="auto" fill="green">1.25</text>
<circle cx="250.0" cy="135.0" r="4" fill="blue" />
<text x="244.0" y="143.0" font-size="12" text-anchor="end" dominant-baseline="auto" fill="blue">5.00</text>
<circle cx="65.0" cy="100.0" r="4" fill="blue" />
<text x="71.0" y="108.0" font-size="12" text-anchor="start" dominant-baseline="auto" fill="blue">0.00</text>
<path d="M250.0,100.0 L254.74358974358972,100.0 L259.4871794871795,100.0 L264.2307692307692,100.0 L268.974358974359,100.0 L273.71794871794873,100.0 L278.46153846153845,100.0 L283.2051282051282,100.0 L287.9487179487179,100.0 L292.69230769230774,100.0 L297.43589743589746,100.0 L302.1794871794872,100.0 L306.9230769230769,100.0 L311.66666666666663,100.0 L316.4102564102564,100.0 L321.15384615384613,100.0 L325.89743589743586,100.0 L330.64102564102564,100.0 L335.38461538461536,100.0 L340.12820512820514,100.0 L344.87179487179486,100.0 L349.6153846153846,100.0 L354.35897435897436,100.0 L359.10256410256414,100.0 L363.84615384615387,100.0 L368.5897435897436,100.0 L373.3333333333333,100.0 L378.0769230769231,100.0 L382.8205128205128,100.0 L387.56410256410254,100.0 L392.3076923076923,100.0 L397.05128205128204,100.0 L401.79487179487177,100.0 L406.53846153846155,100.0 L411.28205128205127,100.0 L416.025641025641,100.0 L420.7692307692307,100.0 L425.5128205128205,100.0 L430.2564102564103,100.0 L435.0,100.0 L435.0,91.25 L430.2564102564103,91.25 L425.5128205128205,91.25 L420.7692307692307,91.25 L416.025641025641,91.25 L411.28205128205127,91.25 L406.53846153846155,91.25 L401.79487179487177,91.25 L397.05128205128204,91.25 L392.3076923076923,91.25 L387.56410256410254,91.25 L382.8205128205128,91.25 L378.0769230769231,91.25 L373.3333333333333,91.25 L368.5897435897436,91.25 L363.84615384615387,91.25 L359.10256410256414,91.25 L354.35897435897436,91.25 L349.6153846153846,91.25 L344.87179487179486,91.25 L340.12820512820514,91.25 L335.38461538461536,91.25 L330.64102564102564,91.25 L325.89743589743586,91.25 L321.15384615384613,91.25 L316.4102564102564,91.25 L311.66666666666663,91.25 L306.9230769230769,91.25 L302.1794871794872,91.25 L297.43589743589746,91.25 L292.69230769230774,91.25 L287.9487179487179,91.25 L283.2051282051282,91.25 L278.46153846153845,91.25 L273.71794871794873,91.25 L268.974358974359,91.25 L264.2307692307692,91.25 L259.4871794871795,91.25 L254.74358974358972,91.25 L250.0,91.25 Z" fill="green" fill-opacity="0.25" stroke="none" stroke-opacity="0.25" />
<path d="M250.0,100.0 L254.74358974358972,100.0 L259.4871794871795,100.0 L264.2307692307692,100.0 L268.974358974359,100.0 L273.71794871794873,100.0 L278.46153846153845,100.0 L283.2051282051282,100.0 L287.9487179487179,100.0 L292.69230769230774,100.0 L297.43589743589746,100.0 L302.1794871794872,100.0 L306.9230769230769,100.0 L311.66666666666663,100.0 L316.4102564102564,100.0 L321.15384615384613,100.0 L325.89743589743586,100.0 L330.64102564102564,100.0 L335.38461538461536,100.0 L340.12820512820514,100.0 L344.87179487179486,100.0 L349.6153846153846,100.0 L354.35897435897436,100.0 L359.10256410256414,100.0 L363.84615384615387,100.0 L368.5897435897436,100.0 L373.3333333333333,100.0 L378.0769230769231,100.0 L382.8205128205128,100.0 L387.56410256410254,100.0 L392.3076923076923,100.0 L397.05128205128204,100.0 L401.79487179487177,100.0 L406.53846153846155,100.0 L411.28205128205127,100.0 L416.025641025641,100.0 L420.7692307692307,100.0 L425.5128205128205,100.0 L430.2564102564103,100.0 L435.0,100.0 L435.0,100.0 L430.2564102564103,99.10256410256409 L425.5128205128205,98.2051282051282 L420.7692307692307,97.3076923076923 L416.025641025641,96.41025641025641 L411.28205128205127,95.51282051282053 L406.53846153846155,94.61538461538461 L401.79487179487177,93.71794871794872 L397.05128205128204,92.82051282051282 L392.3076923076923,91.92307692307692 L387.56410256410254,91.02564102564102 L382.8205128205128,90.12820512820512 L378.0769230769231,89.23076923076923 L373.3333333333333,88.33333333333334 L368.5897435897436,87.43589743589743 L363.84615384615387,86.53846153846155 L359.10256410256414,85.64102564102565 L354.35897435897436,84.74358974358975 L349.6153846153846,83.84615384615385 L344.87179487179486,82.94871794871796 L340.12820512820514,82.05128205128204 L335.38461538461536,81.15384615384616 L330.64102564102564,80.25641025641026 L325.89743589743586,79.35897435897436 L321.15384615384613,78.46153846153845 L316.4102564102564,77.56410256410257 L311.66666666666663,76.66666666666667 L306.9230769230769,75.76923076923077 L302.1794871794872,74.87179487179488 L297.43589743589746,73.97435897435898 L292.69230769230774,73.07692307692308 L287.9487179487179,72.17948717948718 L283.2051282051282,71.28205128205128 L278.46153846153845,70.38461538461539 L273.71794871794873,69.48717948717949 L268.974358974359,68.58974358974359 L264.2307692307692,67.6923076923077 L259.4871794871795,66.7948717948718 L254.74358974358972,65.8974358974359 L250.0,65.0 Z" fill="blue" fill-opacity="0.25" stroke="none" stroke-opacity="0.25" />
<path d="M250.0,91.25 L254.74358974358972,91.25 L259.4871794871795,91.25 L264.2307692307692,91.25 L268.974358974359,91.25 L273.71794871794873,91.25 L278.46153846153845,91.25 L283.2051282051282,91.25 L287.9487179487179,91.25 L292.69230769230774,91.25 L297.43589743589746,91.25 L302.1794871794872,91.25 L306.9230769230769,91.25 L311.66666666666663,91.25 L316.4102564102564,91.25 L321.15384615384613,91.25 L325.89743589743586,91.25 L330.64102564102564,91.25 L335.38461538461536,91.25 L340.12820512820514,91.25 L344.87179487179486,91.25 L349.6153846153846,91.25 L354.35897435897436,91.25 L359.10256410256414,91.25 L363.84615384615387,91.25 L368.5897435897436,91.25 L373.3333333333333,91.25 L378.0769230769231,91.25 L382.8205128205128,91.25 L387.56410256410254,91.25 L392.3076923076923,91.25 L397.05128205128204,91.25 L401.79487179487177,91.25 L406.53846153846155,91.25 L411.28205128205127,91.25 L416.025641025641,91.25 L420.7692307692307,91.25 L425.5128205128205,91.25 L430.2564102564103,91.25 L435.0,91.25" stroke="green" fill="none" stroke-width="2" />
<path d="M250.0,65.0 L254.74358974358972,65.8974358974359 L259.4871794871795,66.7948717948718 L264.2307692307692,67.6923076923077 L268.974358974359,68.58974358974359 L273.71794871794873,69.48717948717949 L278.46153846153845,70.38461538461539 L283.2051282051282,71.28205128205128 L287.9487179487179,72.17948717948718 L292.69230769230774,73.07692307692308 L297.43589743589746,73.97435897435898 L302.1794871794872,74.87179487179488 L306.9230769230769,75.76923076923077 L311.66666666666663,76.66666666666667 L316.4102564102564,77.56410256410257 L321.15384615384613,78.46153846153845 L325.89743589743586,79.35897435897436 L330.64102564102564,80.25641025641026 L335.38461538461536,81.15384615384616 L340.12820512820514,82.05128205128204 L344.87179487179486,82.94871794871796 L349.6153846153846,83.84615384615385 L354.35897435897436,84.74358974358975 L359.10256410256414,85.64102564102565 L363.84615384615387,86.53846153846155 L368.5897435897436,87.43589743589743 L373.3333333333333,88.33333333333334 L378.0769230769231,89.23076923076923 L382.8205128205128,90.12820512820512 L387.56410256410254,91.02564102564102 L392.3076923076923,91.92307692307692 L397.05128205128204,92.82051282051282 L401.79487179487177,93.71794871794872 L406.53846153846155,94.61538461538461 L411.28205128205127,95.51282051282053 L416.025641025641,96.41025641025641 L420.7692307692307,97.3076923076923 L425.5128205128205,98.2051282051282 L430.2564102564103,99.10256410256409 L435.0,100.0" stroke="blue" fill="none" stroke-width="2" />
<circle cx="250.0" cy="91.25" r="4" fill="green" />
<text x="256.0" y="87.25" font-size="12" text-anchor="start" dominant-baseline="auto" fill="green">1.25</text>
<circle cx="435.0" cy="91.25" r="4" fill="green" />
<text x="429.0" y="87.25" font-size="12" text-anchor="end" dominant-baseline="auto" fill="green">1.25</text>
<circle cx="435.0" cy="100.0" r="4" fill="blue" />
<text x="429.0" y="108.0" font-size="12" text-anchor="end" dominant-baseline="auto" fill="blue">0.00</text>
<circle cx="250.0" cy="65.0" r="4" fill="blue" />
<text x="256.0" y="61.0" font-size="12" text-anchor="start" dominant-baseline="auto" fill="blue">-5.00</text>
<path d="M65.0,100.0 L250.0,100.0" stroke="black" stroke-width="2" />
<path d="M250.0,100.0 L435.0,100.0" stroke="black" stroke-width="2" />
<rect x="440" y="20" width="60" height="50" fill="white" stroke="black" stroke-width="1" rx="6" ry="6" fill-opacity="0.8" />
<path d="M450,40 L470,40" stroke="green" stroke-width="4" />
<text x="480" y="45" font-size="10" fill="black">V</text>
<path d="M450,55 L470,55" stroke="blue" stroke-width="4" />
<text x="480" y="60" font-size="10" fill="black">M</text>
</svg>